<svg xmlns="http://www.w3.org/2000/svg" xmlns:xlink="http://www.w3.org/1999/xlink" version="1.1" x="0px" y="0px" viewBox="0 0 100 125" enable-background="new 0 0 100 100" xml:space="preserve"><g><path d="M27.171,47.401l6.068,1.12c0.026,0.005,0.053,0.007,0.079,0.007c0.204,0,0.385-0.146,0.424-0.353   c0.043-0.234-0.112-0.459-0.346-0.502l-6.068-1.12c-0.234-0.043-0.459,0.111-0.502,0.346   C26.782,47.133,26.937,47.357,27.171,47.401z"/><path d="M67.799,48.528c0.025,0,0.052-0.002,0.078-0.007l6.068-1.12c0.234-0.043,0.389-0.268,0.346-0.502   c-0.043-0.234-0.267-0.389-0.502-0.346l-6.068,1.12c-0.234,0.043-0.389,0.268-0.346,0.502   C67.413,48.383,67.595,48.528,67.799,48.528z"/><path d="M79.918,62.858c-0.235-1.464-1.367-3.58-3.509-4.506l-0.368-2.241c0.8-0.596,1.039-1.148,1.065-1.215l0.046-0.114   l-1.805-10.029l-0.029-0.057c-0.03-0.06-3.087-6.018-4.424-8.744c-1.661-3.387-3.441-5.034-5.439-5.034h-1.877   c-0.28-1.537-0.637-2.448-2.914-2.448H58.23v-1.719c2.252-0.071,4.062-1.924,4.062-4.193V10.831c0-2.313-1.883-4.196-4.196-4.196   h-1.508V3.798c0-0.849-0.69-1.539-1.538-1.539h-9.036c-0.849,0-1.539,0.69-1.539,1.539v2.836h-1.507   c-2.314,0-4.196,1.883-4.196,4.196v11.728c0,2.269,1.811,4.122,4.062,4.193v1.719h-2.433c-2.278,0-2.634,0.911-2.915,2.448h-1.825   c-1.999,0-3.778,1.646-5.44,5.034c-1.337,2.726-4.393,8.684-4.424,8.744l-0.029,0.057l-1.804,10.029l0.045,0.114   c0.026,0.066,0.266,0.619,1.066,1.215l-0.368,2.241c-2.142,0.926-3.274,3.042-3.509,4.506c-0.401,2.494,0.163,4.642,1.372,5.224   l0.034,0.015c0.159,0.061,0.312,0.091,0.454,0.091l0,0c0.258,0,0.485-0.099,0.656-0.287c0.357-0.392,0.457-1.143,0.333-2.513   c-0.091-0.996,0.25-2.479,1.076-3.384c0.525-0.575,1.194-0.867,1.989-0.867c0.218,0,0.449,0.022,0.697,0.067   c1.059,0.166,1.818,0.664,2.257,1.48c0.604,1.121,0.485,2.7,0.067,3.616c-0.627,1.376-0.756,2.134-0.446,2.617   c0.122,0.189,0.372,0.416,0.866,0.416l0.082-0.003c1.333-0.149,2.576-1.989,3.022-4.475c0.255-1.417-0.163-3.095-1.091-4.377   c-0.183-0.254-0.412-0.524-0.689-0.792l0.337-2.058c0.222-0.009,0.446-0.021,0.673-0.035v1.716h1.146v5.224h0.394L32.76,97.048   h17.032V77.043h1.481v20.005h17.032l-0.392-7.641c0.105-0.078,0.176-0.203,0.176-0.346c0-0.157-0.086-0.294-0.213-0.369   L67.26,76.641c0-0.01,0.003-0.02,0.003-0.029c0-0.03-0.003-0.06-0.009-0.088l-0.615-11.989h0.395v-5.224h1.146v-1.719   c0.245,0.016,0.486,0.028,0.725,0.038l0.337,2.058c-0.277,0.268-0.506,0.538-0.689,0.792c-0.928,1.282-1.346,2.96-1.091,4.377   c0.446,2.485,1.689,4.325,3.022,4.475l0.081,0.003c0.495,0,0.744-0.227,0.866-0.416c0.311-0.483,0.182-1.241-0.445-2.617   c-0.418-0.916-0.537-2.495,0.066-3.616c0.439-0.816,1.199-1.314,2.269-1.481c1.102-0.202,2.006,0.067,2.676,0.801   c0.826,0.904,1.166,2.388,1.075,3.384c-0.124,1.37-0.024,2.121,0.333,2.513c0.266,0.291,0.66,0.366,1.109,0.196l0.034-0.015   C79.755,67.5,80.319,65.352,79.918,62.858z M65.455,31.782c1.614,0,3.184,1.531,4.665,4.551c1.27,2.588,4.083,8.078,4.402,8.7   l1.634,9.087c-2.718-0.672-6.188,0.237-8.096,1.394c-1.177-6.612-3.741-21-4.162-23.102c-0.044-0.221-0.083-0.432-0.118-0.63   H65.455z M45.338,3.798c0-0.373,0.303-0.676,0.676-0.676h9.036c0.373,0,0.676,0.303,0.676,0.676v2.836H45.338V3.798z    M39.635,22.559V10.831c0-1.838,1.496-3.333,3.334-3.333h1.507h12.113h1.508c1.838,0,3.334,1.496,3.334,3.333v11.728   c0,1.838-1.496,3.334-3.334,3.334H42.969C41.13,25.893,39.635,24.397,39.635,22.559z M43.698,26.755h13.669v1.716H43.698V26.755z    M40.402,29.333h2.433H58.23h2.434c1.77,0,1.834,0.377,2.146,2.191c0.054,0.313,0.114,0.668,0.192,1.056   c0.469,2.347,3.652,20.239,4.231,23.496H33.833c0.456-2.563,2.833-15.928,3.839-21.406c0.004-0.02,0.007-0.038,0.011-0.058   c0.016-0.089,0.033-0.177,0.048-0.261c0.003-0.017,0.006-0.032,0.009-0.048c0.015-0.079,0.029-0.157,0.042-0.232   c0.005-0.028,0.011-0.056,0.016-0.083c0.012-0.063,0.023-0.125,0.035-0.186c0.005-0.03,0.011-0.06,0.016-0.089   c0.011-0.057,0.021-0.113,0.031-0.167c0.005-0.025,0.009-0.049,0.014-0.074c0.01-0.054,0.02-0.106,0.029-0.157   c0.004-0.023,0.009-0.047,0.013-0.069c0.009-0.048,0.018-0.094,0.026-0.139c0.004-0.021,0.008-0.043,0.012-0.064   c0.008-0.042,0.016-0.081,0.023-0.12c0.004-0.021,0.008-0.042,0.012-0.062c0.009-0.045,0.017-0.086,0.024-0.125   c0.001-0.008,0.003-0.017,0.004-0.024c0.01-0.048,0.019-0.092,0.026-0.132c0.078-0.388,0.138-0.743,0.192-1.057   C38.567,29.711,38.632,29.333,40.402,29.333z M26.595,45.033c0.319-0.622,3.132-6.112,4.401-8.7   c1.481-3.02,3.051-4.551,4.666-4.551h1.674c-0.001,0.009-0.003,0.018-0.004,0.026c-0.012,0.065-0.024,0.133-0.037,0.201   c-0.006,0.033-0.012,0.065-0.018,0.098c-0.019,0.1-0.038,0.201-0.059,0.305c-0.008,0.038-0.016,0.08-0.025,0.126   c-0.006,0.03-0.013,0.064-0.019,0.097c-0.003,0.018-0.007,0.035-0.01,0.054c-0.007,0.037-0.015,0.078-0.023,0.118   c-0.003,0.019-0.007,0.036-0.01,0.055c-0.008,0.04-0.016,0.082-0.024,0.125c-0.005,0.026-0.01,0.052-0.015,0.079   c-0.008,0.043-0.017,0.09-0.026,0.136c-0.004,0.024-0.009,0.048-0.014,0.074c-0.01,0.054-0.021,0.11-0.031,0.167   c-0.004,0.024-0.009,0.048-0.014,0.073c-0.011,0.057-0.021,0.116-0.033,0.176c-0.005,0.026-0.01,0.053-0.015,0.08   c-0.012,0.065-0.024,0.132-0.037,0.201c-0.004,0.023-0.009,0.047-0.014,0.072c-0.012,0.066-0.024,0.134-0.038,0.204   c-0.006,0.036-0.013,0.072-0.02,0.108c-0.013,0.071-0.026,0.144-0.04,0.218c-0.003,0.016-0.006,0.031-0.009,0.047   c-0.017,0.091-0.034,0.184-0.051,0.279c-0.001,0.008-0.003,0.016-0.004,0.024c-0.993,5.424-3.092,17.215-3.692,20.589   c-1.908-1.156-5.378-2.065-8.096-1.394L26.595,45.033z M32.808,64.703c-0.359,1.999-1.345,3.646-2.251,3.769h-0.004   c-0.104,0-0.139-0.021-0.14-0.021l0,0c-0.009-0.012-0.183-0.284,0.505-1.792c0.517-1.133,0.65-3.002-0.093-4.384   c-0.566-1.051-1.563-1.716-2.872-1.921c-1.39-0.256-2.603,0.12-3.468,1.067c-1.041,1.141-1.402,2.896-1.298,4.045   c0.15,1.656-0.106,1.851-0.114,1.857c0,0-0.035,0.012-0.146-0.027c-0.815-0.415-1.2-2.296-0.878-4.302   c0.238-1.479,1.495-3.467,3.641-4.065c0.037-0.01,0.074-0.02,0.111-0.029c0.054-0.013,0.107-0.027,0.161-0.039   c0.099-0.021,0.198-0.038,0.298-0.054c0.024-0.003,0.05-0.006,0.074-0.01c0.097-0.013,0.195-0.023,0.293-0.03   c0.013-0.001,0.026-0.002,0.039-0.003c0.232-0.016,0.47-0.016,0.71,0c0.024,0.002,0.048,0.004,0.072,0.006   c0.094,0.007,0.188,0.017,0.283,0.029c0.03,0.004,0.061,0.007,0.092,0.011c0.118,0.018,0.237,0.036,0.356,0.061l0.024,0.004   c0.134,0.019,0.266,0.042,0.395,0.068c0.042,0.009,0.082,0.019,0.122,0.027c0.086,0.02,0.171,0.04,0.255,0.062   c0.047,0.013,0.094,0.026,0.14,0.04c0.077,0.022,0.152,0.047,0.227,0.072c0.044,0.015,0.089,0.03,0.133,0.046   c0.091,0.033,0.182,0.07,0.271,0.108c0.031,0.013,0.063,0.026,0.094,0.04c0.095,0.043,0.187,0.089,0.278,0.137   c0.035,0.018,0.069,0.037,0.104,0.057c0.077,0.042,0.152,0.086,0.226,0.133c0.025,0.015,0.05,0.03,0.074,0.046   c0.097,0.062,0.192,0.129,0.285,0.198c0.014,0.011,0.027,0.021,0.041,0.031c0.095,0.073,0.188,0.148,0.278,0.229l0.043,0.038   c0.288,0.261,0.517,0.528,0.696,0.776C32.65,62.067,33.02,63.527,32.808,64.703z M30.165,58.538   c-0.032-0.014-0.064-0.026-0.096-0.04c-0.077-0.032-0.154-0.065-0.235-0.096c-0.052-0.02-0.105-0.037-0.158-0.055   c-0.063-0.022-0.125-0.045-0.19-0.065s-0.131-0.039-0.197-0.058c-0.056-0.016-0.11-0.032-0.168-0.047   c-0.08-0.021-0.161-0.038-0.242-0.056c-0.047-0.01-0.093-0.021-0.141-0.031c-0.131-0.026-0.265-0.049-0.4-0.068   c-0.115-0.022-0.23-0.042-0.344-0.06c-0.033-0.005-0.065-0.008-0.098-0.012c-0.083-0.012-0.166-0.022-0.248-0.03   c-0.03-0.003-0.059-0.005-0.088-0.007c-0.086-0.007-0.171-0.014-0.256-0.018c-0.023-0.001-0.047-0.001-0.07-0.002   c-0.073-0.003-0.146-0.006-0.219-0.006c-0.017,0-0.033,0.001-0.05,0.001c-0.023,0.001-0.046,0.002-0.069,0.002   c-0.095,0.002-0.189,0.005-0.282,0.011c-0.001,0-0.003,0.001-0.004,0.001c-0.343,0.021-0.668,0.071-0.977,0.144l0.231-1.406   l0.023,0.015l0.164-1.121c0.061-0.007,0.122-0.012,0.183-0.018c0.052-0.005,0.103-0.011,0.155-0.014   c0.035-0.003,0.07-0.004,0.105-0.006c0.08-0.005,0.16-0.011,0.24-0.014c0.01,0,0.02,0,0.03,0c0.567-0.02,1.149,0.012,1.73,0.094   c0.118,0.017,0.236,0.034,0.354,0.056c0.12,0.021,0.239,0.044,0.357,0.068c0.05,0.011,0.099,0.022,0.149,0.034   c0.067,0.016,0.135,0.029,0.202,0.046c0.064,0.016,0.127,0.033,0.19,0.051c0.052,0.014,0.104,0.026,0.155,0.041   c0.062,0.018,0.122,0.037,0.183,0.055c0.052,0.017,0.104,0.031,0.156,0.048c0.059,0.019,0.116,0.04,0.173,0.06   c0.053,0.018,0.106,0.035,0.159,0.055c0.05,0.018,0.099,0.037,0.148,0.057c0.06,0.022,0.119,0.044,0.178,0.068   c0.039,0.016,0.077,0.033,0.116,0.049c0.068,0.029,0.136,0.058,0.203,0.087c0.029,0.014,0.058,0.027,0.087,0.041   c0.074,0.034,0.148,0.068,0.221,0.104l-0.42,2.565c-0.002-0.002-0.004-0.003-0.007-0.005   C30.821,58.869,30.511,58.692,30.165,58.538z M48.93,76.18H34.693l0.597-11.646h13.64V76.18z M33.667,96.185l0.343-6.691H48.93   v6.691H33.667z M48.93,88.631H34.055l0.594-11.588H48.93V88.631z M49.792,76.18V64.534h1.481V76.18H49.792z M67.011,88.631H52.136   V77.043h14.28L67.011,88.631z M52.136,96.185v-6.691h14.919l0.343,6.691H52.136z M66.372,76.18H52.136V64.534h13.64L66.372,76.18z    M66.171,63.672H51.273h-1.481H34.895v-4.361h31.276V63.672z M67.316,58.447h-0.283H34.032h-0.283v-0.916V56.94h33.567V58.447z    M70.012,59.062l-0.42-2.565c0.059-0.029,0.118-0.056,0.178-0.084c0.044-0.021,0.086-0.042,0.13-0.062   c0.055-0.024,0.11-0.047,0.165-0.07c0.052-0.021,0.102-0.045,0.154-0.065c0.049-0.021,0.099-0.039,0.148-0.058   c0.059-0.022,0.117-0.046,0.177-0.067c0.051-0.019,0.104-0.036,0.155-0.054c0.059-0.021,0.117-0.041,0.177-0.061   c0.061-0.02,0.122-0.037,0.184-0.056c0.052-0.016,0.103-0.032,0.155-0.047c0.062-0.019,0.126-0.034,0.189-0.051   c0.052-0.014,0.104-0.028,0.155-0.041c0.083-0.021,0.167-0.039,0.251-0.058c0.033-0.007,0.066-0.016,0.1-0.022   c0.119-0.024,0.238-0.048,0.357-0.068c0.236-0.042,0.474-0.075,0.71-0.1c0.038-0.004,0.075-0.007,0.112-0.01   c0.081-0.008,0.161-0.016,0.242-0.021c0.071-0.005,0.143-0.008,0.213-0.011c0.047-0.003,0.093-0.006,0.14-0.008   c0.089-0.003,0.178-0.004,0.268-0.005c0.027,0,0.055-0.001,0.083-0.001c0.085,0,0.17,0.002,0.255,0.004   c0.031,0.001,0.062,0.001,0.093,0.002c0.07,0.003,0.141,0.008,0.21,0.012c0.045,0.003,0.091,0.004,0.136,0.008   c0.047,0.003,0.092,0.009,0.139,0.013c0.066,0.006,0.133,0.011,0.199,0.019l0.164,1.121l0.023-0.015l0.23,1.406   c-0.31-0.073-0.636-0.122-0.979-0.145c0,0,0,0-0.001,0c-0.094-0.006-0.19-0.009-0.287-0.011c-0.021,0-0.042-0.001-0.063-0.002   c-0.017,0-0.033-0.001-0.051-0.001c-0.074,0-0.149,0.003-0.226,0.006c-0.021,0.001-0.041,0.001-0.062,0.002   c-0.088,0.004-0.178,0.011-0.267,0.019c-0.026,0.002-0.052,0.003-0.078,0.006c-0.086,0.008-0.173,0.02-0.261,0.031   c-0.028,0.004-0.057,0.007-0.085,0.011c-0.114,0.017-0.229,0.037-0.345,0.06c-0.136,0.02-0.27,0.042-0.4,0.068   c-0.048,0.01-0.093,0.021-0.14,0.031c-0.082,0.018-0.163,0.035-0.243,0.056c-0.057,0.015-0.11,0.031-0.165,0.047   c-0.067,0.019-0.135,0.037-0.201,0.058c-0.062,0.02-0.122,0.042-0.184,0.062c-0.055,0.02-0.11,0.037-0.164,0.058   c-0.077,0.029-0.149,0.061-0.223,0.092c-0.036,0.015-0.073,0.028-0.108,0.045c-0.227,0.101-0.438,0.211-0.635,0.328   c-0.002,0.001-0.004,0.002-0.006,0.004c-0.101,0.06-0.197,0.121-0.29,0.185C70.018,59.058,70.015,59.06,70.012,59.062z    M78.188,67.297c-0.069,0.024-0.11,0.028-0.129,0.028c-0.009,0-0.014,0-0.014-0.001c-0.02-0.014-0.265-0.229-0.116-1.857   c0.104-1.149-0.257-2.904-1.298-4.045c-0.686-0.75-1.594-1.147-2.626-1.147c-0.271,0-0.554,0.027-0.831,0.078   c-1.32,0.207-2.317,0.872-2.883,1.923c-0.743,1.382-0.609,3.251-0.093,4.384c0.689,1.513,0.513,1.781,0.507,1.79   c0,0-0.033,0.022-0.143,0.022H70.56c-0.905-0.122-1.892-1.77-2.251-3.769c-0.212-1.176,0.158-2.636,0.941-3.719   c0.18-0.248,0.409-0.517,0.697-0.777l0.04-0.036c0.001-0.001,0.003-0.002,0.004-0.003c0.089-0.078,0.181-0.152,0.274-0.225   c0.015-0.012,0.029-0.023,0.044-0.034c0.092-0.069,0.187-0.135,0.282-0.196c0.025-0.017,0.053-0.033,0.079-0.049   c0.072-0.045,0.146-0.089,0.221-0.13c0.035-0.02,0.07-0.04,0.107-0.059c0.088-0.047,0.179-0.091,0.271-0.132   c0.034-0.017,0.07-0.031,0.105-0.047c0.087-0.037,0.175-0.072,0.264-0.105c0.045-0.016,0.09-0.031,0.136-0.047   c0.074-0.024,0.148-0.049,0.225-0.071c0.047-0.014,0.094-0.027,0.142-0.04c0.083-0.022,0.168-0.043,0.254-0.062   c0.041-0.01,0.081-0.02,0.123-0.028c0.129-0.026,0.261-0.05,0.395-0.068l0.023-0.004c0.119-0.024,0.237-0.043,0.355-0.06   c0.031-0.005,0.063-0.009,0.095-0.013c0.094-0.012,0.186-0.021,0.277-0.028c0.026-0.002,0.052-0.004,0.077-0.006   c0.24-0.016,0.476-0.016,0.707-0.001c0.014,0.002,0.027,0.003,0.042,0.004c0.098,0.007,0.194,0.018,0.29,0.03   c0.025,0.004,0.051,0.007,0.076,0.011c0.1,0.015,0.199,0.032,0.297,0.053c0.055,0.012,0.108,0.026,0.162,0.039   c0.037,0.01,0.074,0.02,0.111,0.029c2.146,0.599,3.403,2.586,3.641,4.065C79.389,65.001,79.004,66.882,78.188,67.297z"/><circle cx="46.958" cy="15.32" r="1.211"/><circle cx="54.107" cy="15.32" r="1.211"/><path d="M46.688,19.653c-0.196,0.197-0.195,0.516,0.001,0.711c1.063,1.06,2.46,1.589,3.857,1.589s2.794-0.53,3.857-1.589   c0.197-0.196,0.198-0.515,0.002-0.711s-0.515-0.197-0.712-0.001c-1.735,1.729-4.559,1.729-6.294,0   C47.203,19.456,46.885,19.456,46.688,19.653z"/></g></svg>