<svg xmlns="http://www.w3.org/2000/svg" viewBox="0 0 48 60" x="0px" y="0px">
  <title>ecommerce, commerce, Kg, measure, weight, kilogram, Heavy</title>
  <path d="M28,25a2,2,0,0,0-2,2v1a2,2,0,0,0,4,0V27A2,2,0,0,0,28,25Z" />
  <path
    d="M38,10.79A1,1,0,0,0,37,10H25V8.86a4,4,0,1,0-2,0V10H11a1,1,0,0,0-1,.79l-7,32A1,1,0,0,0,4,44H44a1,1,0,0,0,1-1.21ZM22,5a2,2,0,1,1,2,2A2,2,0,0,1,22,5Zm.8,25.4a1,1,0,0,1-.2,1.4,1,1,0,0,1-.6.2,1,1,0,0,1-.8-.4L18.47,28l-.47.47V31a1,1,0,0,1-2,0V19a1,1,0,0,1,2,0v6.58l3.29-3.29a1,1,0,0,1,1.42,1.42l-2.82,2.82ZM32,33a4,4,0,0,1-8,0,1,1,0,0,1,2,0,2,2,0,0,0,4,0V31.46A4,4,0,0,1,24,28V27a4,4,0,0,1,6.09-3.41A1,1,0,0,1,32,24Z" />
  <text x="0" y="63" fill="#000000" font-size="5px" font-weight="bold"
    font-family="'Helvetica Neue', Helvetica, Arial-Unicode, Arial, Sans-serif">Created by Jordan
    Alfarishy</text>
  <text x="0" y="68" fill="#000000" font-size="5px" font-weight="bold"
    font-family="'Helvetica Neue', Helvetica, Arial-Unicode, Arial, Sans-serif">from the Noun
    Project</text>
</svg>